# xmcd
#
# Track frame offsets:
# 150
# 18829
# 36419
# 50390
# 63541
# 80061
# 93833
# 106435
# 122526
# 134309
# 152532
# 169027
# 180839
# 194738
# 206215
# 220668
# 233009
# 250209
# 262966
# 280121
# 296565
#
# Disc length: 4157 seconds
#
#
# Revision: 1
# Processed by: cddbd v1.5.1PL2 Copyright (c) Steve Scherf et al.
# Submitted via: FreeRIP 2.944 
#
DISCID=27103b15
DTITLE=Vários - Coletânea Country
DYEAR=1900
DGENRE=Sertanejo
TTITLE0=Dadada Especial
TTITLE1=Clima de Rodeio
TTITLE2=Raimunda
TTITLE3=Sou Feio Mas Tô Na Moda
TTITLE4=Estrela Guia
TTITLE5=Meu Barraco Caiu
TTITLE6=Sem Você Não Tem Jeito
TTITLE7=Pinga Na Garganta
TTITLE8=Amor, Amasso e Paixão
TTITLE9=Chique No Urtimo
TTITLE10=Ela Chorou de Amor
TTITLE11=Sapatio Sapatio
TTITLE12=A Rabada da Cunhada
TTITLE13=Whisk Com Guárana
TTITLE14=Nois Não Vive Sem Dinheiro
TTITLE15=Rodopiou
TTITLE16=Rindo a Toa
TTITLE17=Vírus da Paixão
TTITLE18=Mulher Que Não Da Voa
TTITLE19=Rodeio e Vaquejada
TTITLE20=O Garrafão
EXTD=
EXTT0=
EXTT1=
EXTT2=
EXTT3=
EXTT4=
EXTT5=
EXTT6=
EXTT7=
EXTT8=
EXTT9=
EXTT10=
EXTT11=
EXTT12=
EXTT13=
EXTT14=
EXTT15=
EXTT16=
EXTT17=
EXTT18=
EXTT19=
EXTT20=
PLAYORDER=
